<svg xmlns="http://www.w3.org/2000/svg" viewBox="0 0 26 19.47"><defs><style>.cls-1{fill:#21963e;}.cls-2{fill:none;}</style></defs><title>createemailAsset 1</title><g id="Layer_2" data-name="Layer 2"><g id="Layer_1-2" data-name="Layer 1"><path class="cls-1" d="M18.45,0H1.55A1.54,1.54,0,0,0,0,1.53V14.45A1.54,1.54,0,0,0,1.53,16H13.74a5.18,5.18,0,0,1,0-2H2V4l8,5,8-5V9.74a5.18,5.18,0,0,1,2,0V1.55A1.54,1.54,0,0,0,18.47,0ZM10,7,2,2H18Z"/><path class="cls-1" d="M18.45,0H1.55A1.54,1.54,0,0,0,0,1.53V14.45A1.54,1.54,0,0,0,1.53,16H13.74a5.18,5.18,0,0,1,0-2H2V4l8,5,8-5V9.74a5.18,5.18,0,0,1,2,0V1.55A1.54,1.54,0,0,0,18.47,0ZM10,7,2,2H18Z"/><path class="cls-2" d="M19.85,5.63l-7.7,6.16,6.16,7.68L26,13.32ZM16.39,15.76l4.29-4.49-5.32,3.21-1.8-2.26,9-2.49L18.18,18Z"/><path class="cls-1" d="M13.56,12.22l1.8,2.26,5.32-3.21-4.29,4.49L18.18,18l4.43-8.27Zm2,1.18L15,12.68l3.24-.89Zm2.5,3.12-.57-.71,2.15-2.26Z"/><polygon class="cls-1" points="19.63 13.55 18.05 16.52 17.48 15.81 19.63 13.55"/><polygon class="cls-1" points="18.22 11.79 15.55 13.4 14.98 12.68 18.22 11.79"/></g></g></svg>