<svg xmlns="http://www.w3.org/2000/svg" viewBox="0 0 22.88 18.49"><defs><style>.cls-1{fill:#236eb0;}</style></defs><title>createemailAsset 5</title><g id="Layer_2" data-name="Layer 2"><g id="Layer_1-2" data-name="Layer 1"><path class="cls-1" d="M18.45,0H1.55A1.54,1.54,0,0,0,0,1.55v12.9A1.54,1.54,0,0,0,1.55,16H13.74a5.05,5.05,0,0,1,0-2H2V4l8,5,8-5V9.74a5.05,5.05,0,0,1,2,0V1.55A1.54,1.54,0,0,0,18.45,0ZM10,7,2,2H18Z"/><path class="cls-1" d="M18.45,0H1.55A1.54,1.54,0,0,0,0,1.55v12.9A1.54,1.54,0,0,0,1.55,16H13.74a5.05,5.05,0,0,1,0-2H2V4l8,5,8-5V9.74a5.05,5.05,0,0,1,2,0V1.55A1.54,1.54,0,0,0,18.45,0ZM10,7,2,2H18Z"/><polygon class="cls-1" points="22.88 13.64 22.88 15.64 20.03 15.64 20.03 18.49 18.03 18.49 18.03 15.64 15.18 15.64 15.18 13.64 18.03 13.64 18.03 10.79 20.03 10.79 20.03 13.64 22.88 13.64"/></g></g></svg>